<?xml version="1.0" encoding="UTF-8"?>
<svg xmlns="http://www.w3.org/2000/svg" xmlns:xlink="http://www.w3.org/1999/xlink" width="800" height="800" viewBox="0 0 800 800" opacity="0.8">
<path fill="none" stroke-width="0.08" stroke-linecap="round" stroke-linejoin="miter" stroke="rgb(100%, 100%, 100%)" stroke-opacity="1" stroke-miterlimit="10" d="M 0.074991 0.300007 C 0.074991 0.610508 0.237985 0.924997 0.700016 0.924997 M 0.869989 0.869989 L 0.980005 0.980005 M 0.869989 0.980005 L 0.980005 0.869989 " transform="matrix(109.714286, 0, 0, 109.714286, 2.194286, 2.194286)"/>
<path fill="none" stroke-width="0.08" stroke-linecap="round" stroke-linejoin="miter" stroke="rgb(100%, 100%, 100%)" stroke-opacity="1" stroke-miterlimit="10" d="M 1.150013 0.0749972 C 1.562484 0.0749972 1.775003 0.237992 1.775003 0.699987 M 1.719995 0.869995 L 1.830011 0.980011 M 1.719995 0.980011 L 1.830011 0.869995 " transform="matrix(109.714286, 0, 0, 109.714286, 2.194286, 95.451429)"/>
<path fill="none" stroke-width="0.08" stroke-linecap="round" stroke-linejoin="miter" stroke="rgb(100%, 100%, 100%)" stroke-opacity="1" stroke-miterlimit="10" d="M 1.775003 0.299984 C 1.775003 0.610485 1.937998 0.925009 2.399993 0.925009 M 2.570001 0.870001 L 2.680017 0.980017 M 2.570001 0.980017 L 2.680017 0.870001 " transform="matrix(109.714286, 0, 0, 109.714286, 2.194286, 188.708571)"/>
<path fill="none" stroke-width="0.08" stroke-linecap="round" stroke-linejoin="miter" stroke="rgb(100%, 100%, 100%)" stroke-opacity="1" stroke-miterlimit="10" d="M 1.549987 0.0750033 C 1.137516 0.0750033 0.924997 0.237998 0.924997 0.699993 M 0.869989 0.870001 L 0.980005 0.980017 M 0.869989 0.980017 L 0.980005 0.870001 " transform="matrix(109.714286, 0, 0, 109.714286, 2.194286, 188.708571)"/>
<path fill="none" stroke-width="0.08" stroke-linecap="round" stroke-linejoin="miter" stroke="rgb(100%, 100%, 100%)" stroke-opacity="1" stroke-miterlimit="10" d="M 2.84999 0.0750094 C 3.262496 0.0750094 3.475015 0.238004 3.475015 0.699999 M 3.420008 0.870008 L 3.529988 0.979988 M 3.420008 0.979988 L 3.529988 0.870008 " transform="matrix(109.714286, 0, 0, 109.714286, 2.194286, 281.965714)"/>
<path fill="none" stroke-width="0.08" stroke-linecap="round" stroke-linejoin="miter" stroke="rgb(100%, 100%, 100%)" stroke-opacity="1" stroke-miterlimit="10" d="M 0.700016 0.0750094 C 0.28751 0.0750094 0.074991 0.238004 0.074991 0.699999 M 0.0199831 0.870008 L 0.129999 0.979988 M 0.0199831 0.979988 L 0.129999 0.870008 " transform="matrix(109.714286, 0, 0, 109.714286, 2.194286, 281.965714)"/>
<path fill="none" stroke-width="0.08" stroke-linecap="round" stroke-linejoin="miter" stroke="rgb(100%, 100%, 100%)" stroke-opacity="1" stroke-miterlimit="10" d="M 3.475015 0.299996 C 3.475015 0.610497 3.63801 0.924986 4.100005 0.924986 M 4.270014 0.870014 L 4.379994 0.979994 M 4.270014 0.979994 L 4.379994 0.870014 " transform="matrix(109.714286, 0, 0, 109.714286, 2.194286, 375.222857)"/>
<path fill="none" stroke-width="0.08" stroke-linecap="round" stroke-linejoin="miter" stroke="rgb(100%, 100%, 100%)" stroke-opacity="1" stroke-miterlimit="10" d="M -0.14999 0.0750155 C -0.562496 0.0750155 -0.775015 0.23801 -0.775015 0.700005 M -0.829987 0.870014 L -0.720007 0.979994 M -0.829987 0.979994 L -0.720007 0.870014 " transform="matrix(109.714286, 0, 0, 109.714286, 2.194286, 375.222857)"/>
<path fill="none" stroke-width="0.08" stroke-linecap="round" stroke-linejoin="miter" stroke="rgb(100%, 100%, 100%)" stroke-opacity="1" stroke-miterlimit="10" d="M 4.550002 0.074986 C 4.962508 0.074986 5.174992 0.238016 5.174992 0.700011 M 5.119984 0.869984 L 5.23 0.98 M 5.119984 0.98 L 5.23 0.869984 " transform="matrix(109.714286, 0, 0, 109.714286, 2.194286, 468.48)"/>
<path fill="none" stroke-width="0.08" stroke-linecap="round" stroke-linejoin="miter" stroke="rgb(100%, 100%, 100%)" stroke-opacity="1" stroke-miterlimit="10" d="M 4.100005 0.074986 C 3.687499 0.074986 3.475015 0.238016 3.475015 0.700011 M 3.420008 0.869984 L 3.529988 0.98 M 3.420008 0.98 L 3.529988 0.869984 " transform="matrix(109.714286, 0, 0, 109.714286, 2.194286, 468.48)"/>
<path fill="none" stroke-width="0.08" stroke-linecap="round" stroke-linejoin="miter" stroke="rgb(100%, 100%, 100%)" stroke-opacity="1" stroke-miterlimit="10" d="M 5.174992 0.300008 C 5.174992 0.610509 5.337986 0.924998 5.800017 0.924998 M 5.96999 0.86999 L 6.080006 0.980006 M 5.96999 0.980006 L 6.080006 0.86999 " transform="matrix(109.714286, 0, 0, 109.714286, 2.194286, 561.737143)"/>
<path fill="none" stroke-width="0.08" stroke-linecap="round" stroke-linejoin="miter" stroke="rgb(100%, 100%, 100%))" stroke-opacity="1" stroke-miterlimit="10" d="M 3.249999 0.0749921 C 2.837493 0.0749921 2.625009 0.237986 2.625009 0.700017 M 2.570001 0.86999 L 2.680017 0.980006 M 2.570001 0.980006 L 2.680017 0.86999 " transform="matrix(109.714286, 0, 0, 109.714286, 2.194286, 561.737143)"/>
</svg>
