<?xml version="1.0" standalone="no"?>
<!DOCTYPE svg PUBLIC "-//W3C//DTD SVG 20010904//EN"
 "http://www.w3.org/TR/2001/REC-SVG-20010904/DTD/svg10.dtd">
<svg version="1.0" xmlns="http://www.w3.org/2000/svg"
 width="260.000000pt" height="260.000000pt" viewBox="0 0 260.000000 260.000000"
 preserveAspectRatio="xMidYMid meet">
<metadata>
Created by potrace 1.14, written by Peter Selinger 2001-2017
</metadata>
<g transform="translate(0.000000,260.000000) scale(0.100000,-0.100000)"
fill="#000000" stroke="none">
<path d="M935 2210 l-69 -70 34 -35 34 -35 -367 0 -367 0 0 -775 0 -775 432 0
433 0 165 -165 165 -165 75 75 75 75 -89 89 -89 89 344 5 c375 4 403 8 518 67
64 32 140 106 170 165 50 99 65 255 36 370 -36 140 -138 243 -288 290 -63 20
-116 29 -229 35 -88 6 -161 15 -183 24 -44 19 -65 63 -65 139 0 122 33 148
203 155 l107 5 0 -42 0 -41 230 0 230 0 0 230 0 230 -230 0 -230 0 0 -40 0
-40 -97 0 c-337 -1 -513 -156 -513 -455 0 -146 32 -236 112 -321 92 -98 183
-130 400 -144 176 -10 230 -28 253 -84 19 -45 19 -117 1 -161 -30 -72 -106
-85 -486 -85 l-285 0 90 90 90 90 -70 70 c-38 39 -73 69 -77 68 -4 -2 -81 -74
-172 -161 l-164 -157 -281 0 -281 0 0 475 0 475 217 0 217 0 -42 -43 -42 -43
75 -74 75 -75 96 95 c52 52 136 139 186 193 l91 98 -179 180 c-98 98 -181 179
-184 179 -3 0 -37 -31 -75 -70z"/>
<path d="M650 1290 l0 -170 170 0 170 0 0 170 0 170 -170 0 -170 0 0 -170z"/>
</g>
</svg>
