<svg width="24" height="24" xmlns="http://www.w3.org/2000/svg" xmlns:svg="http://www.w3.org/2000/svg" enable-background="new 0 0 24 24" version="1.1" xml:space="preserve">
 <g class="layer">
  <title>Layer 1</title>
  <polygon id="svg_2" points="12.153992,10.729553 8.088684,5.041199 5.92041,5.041199 10.956299,12.087097 11.59021,12.97345    15.900635,19.009583 18.068909,19.009583 12.785217,11.615906  "/>
  <path d="m12,0l0,0a12,12 0 0 0 -12,12a12,12 0 0 0 12,12a12,12 0 0 0 12,-12a12,12 0 0 0 -12,-12l12,12l-12,-12zm3.24,20l-4.37,-6.21l-5.46,6.21l-1.41,0l6.25,-7.1l-6.25,-8.9l4.76,0l4.13,5.88l5.18,-5.88l1.41,0l-5.96,6.78l6.48,9.22l-4.76,0z" id="svg_3"/>
 </g>
</svg>